<?xml version="1.0" encoding="UTF-8"?>
<!DOCTYPE svg PUBLIC "-//W3C//DTD SVG 1.1//EN"
    "http://www.w3.org/Graphics/SVG/1.1/DTD/svg11.dtd"><svg xmlns="http://www.w3.org/2000/svg" height="355.3418" stroke-opacity="1" viewBox="0 0 400 355" font-size="1" width="400.0000" xmlns:xlink="http://www.w3.org/1999/xlink" stroke="rgb(0,0,0)" version="1.1"><defs></defs><defs></defs><g stroke-linejoin="miter" stroke-opacity="1.0" fill-opacity="0.0" stroke="rgb(0,0,0)" stroke-width="1.5080409570278486" fill="rgb(0,0,0)" stroke-linecap="butt" stroke-miterlimit="10.0"><path d="M 283.3333,322.0085 l 83.3333,-144.3376 l -83.3333,-144.3376 h -166.6667 l -83.3333,144.3376 l 83.3333,144.3376 Z"/></g><defs></defs><g stroke-linejoin="miter" stroke-opacity="1.0" fill-opacity="1.0" stroke="rgb(0,0,0)" stroke-width="1.5080409570278486" fill="rgb(255,255,255)" stroke-linecap="butt" stroke-miterlimit="10.0"><path d="M 150.0000,322.0085 c 0.0000,-18.4095 -14.9238,-33.3333 -33.3333 -33.3333c -18.4095,-0.0000 -33.3333,14.9238 -33.3333 33.3333c -0.0000,18.4095 14.9238,33.3333 33.3333 33.3333c 18.4095,0.0000 33.3333,-14.9238 33.3333 -33.3333Z"/></g><defs></defs><g stroke-linejoin="miter" stroke-opacity="1.0" fill-opacity="1.0" font-size="33.333333333333336px" stroke="rgb(0,0,0)" stroke-width="1.5080409570278486" fill="rgb(0,0,0)" stroke-linecap="butt" stroke-miterlimit="10.0"><text dominant-baseline="middle" transform="matrix(1.0000,0.0000,0.0000,1.0000,116.6667,322.0085)" stroke="none" text-anchor="middle">f</text></g><defs></defs><g stroke-linejoin="miter" stroke-opacity="1.0" fill-opacity="1.0" stroke="rgb(0,0,0)" stroke-width="1.5080409570278486" fill="rgb(255,255,255)" stroke-linecap="butt" stroke-miterlimit="10.0"><path d="M 66.6667,177.6709 c 0.0000,-18.4095 -14.9238,-33.3333 -33.3333 -33.3333c -18.4095,-0.0000 -33.3333,14.9238 -33.3333 33.3333c -0.0000,18.4095 14.9238,33.3333 33.3333 33.3333c 18.4095,0.0000 33.3333,-14.9238 33.3333 -33.3333Z"/></g><defs></defs><g stroke-linejoin="miter" stroke-opacity="1.0" fill-opacity="1.0" font-size="33.333333333333336px" stroke="rgb(0,0,0)" stroke-width="1.5080409570278486" fill="rgb(0,0,0)" stroke-linecap="butt" stroke-miterlimit="10.0"><text dominant-baseline="middle" transform="matrix(1.0000,0.0000,0.0000,1.0000,33.3333,177.6709)" stroke="none" text-anchor="middle">e</text></g><defs></defs><g stroke-linejoin="miter" stroke-opacity="1.0" fill-opacity="1.0" stroke="rgb(0,0,0)" stroke-width="1.5080409570278486" fill="rgb(255,255,255)" stroke-linecap="butt" stroke-miterlimit="10.0"><path d="M 150.0000,33.3333 c 0.0000,-18.4095 -14.9238,-33.3333 -33.3333 -33.3333c -18.4095,-0.0000 -33.3333,14.9238 -33.3333 33.3333c -0.0000,18.4095 14.9238,33.3333 33.3333 33.3333c 18.4095,0.0000 33.3333,-14.9238 33.3333 -33.3333Z"/></g><defs></defs><g stroke-linejoin="miter" stroke-opacity="1.0" fill-opacity="1.0" font-size="33.333333333333336px" stroke="rgb(0,0,0)" stroke-width="1.5080409570278486" fill="rgb(0,0,0)" stroke-linecap="butt" stroke-miterlimit="10.0"><text dominant-baseline="middle" transform="matrix(1.0000,0.0000,0.0000,1.0000,116.6667,33.3333)" stroke="none" text-anchor="middle">d</text></g><defs></defs><g stroke-linejoin="miter" stroke-opacity="1.0" fill-opacity="1.0" stroke="rgb(0,0,0)" stroke-width="1.5080409570278486" fill="rgb(255,255,255)" stroke-linecap="butt" stroke-miterlimit="10.0"><path d="M 316.6667,33.3333 c 0.0000,-18.4095 -14.9238,-33.3333 -33.3333 -33.3333c -18.4095,-0.0000 -33.3333,14.9238 -33.3333 33.3333c -0.0000,18.4095 14.9238,33.3333 33.3333 33.3333c 18.4095,0.0000 33.3333,-14.9238 33.3333 -33.3333Z"/></g><defs></defs><g stroke-linejoin="miter" stroke-opacity="1.0" fill-opacity="1.0" font-size="33.333333333333336px" stroke="rgb(0,0,0)" stroke-width="1.5080409570278486" fill="rgb(0,0,0)" stroke-linecap="butt" stroke-miterlimit="10.0"><text dominant-baseline="middle" transform="matrix(1.0000,0.0000,0.0000,1.0000,283.3333,33.3333)" stroke="none" text-anchor="middle">c</text></g><defs></defs><g stroke-linejoin="miter" stroke-opacity="1.0" fill-opacity="1.0" stroke="rgb(0,0,0)" stroke-width="1.5080409570278486" fill="rgb(255,255,255)" stroke-linecap="butt" stroke-miterlimit="10.0"><path d="M 400.0000,177.6709 c 0.0000,-18.4095 -14.9238,-33.3333 -33.3333 -33.3333c -18.4095,-0.0000 -33.3333,14.9238 -33.3333 33.3333c -0.0000,18.4095 14.9238,33.3333 33.3333 33.3333c 18.4095,0.0000 33.3333,-14.9238 33.3333 -33.3333Z"/></g><defs></defs><g stroke-linejoin="miter" stroke-opacity="1.0" fill-opacity="1.0" font-size="33.333333333333336px" stroke="rgb(0,0,0)" stroke-width="1.5080409570278486" fill="rgb(0,0,0)" stroke-linecap="butt" stroke-miterlimit="10.0"><text dominant-baseline="middle" transform="matrix(1.0000,0.0000,0.0000,1.0000,366.6667,177.6709)" stroke="none" text-anchor="middle">b</text></g><defs></defs><g stroke-linejoin="miter" stroke-opacity="1.0" fill-opacity="1.0" stroke="rgb(0,0,0)" stroke-width="1.5080409570278486" fill="rgb(255,255,255)" stroke-linecap="butt" stroke-miterlimit="10.0"><path d="M 316.6667,322.0085 c 0.0000,-18.4095 -14.9238,-33.3333 -33.3333 -33.3333c -18.4095,-0.0000 -33.3333,14.9238 -33.3333 33.3333c -0.0000,18.4095 14.9238,33.3333 33.3333 33.3333c 18.4095,0.0000 33.3333,-14.9238 33.3333 -33.3333Z"/></g><defs></defs><g stroke-linejoin="miter" stroke-opacity="1.0" fill-opacity="1.0" font-size="33.333333333333336px" stroke="rgb(0,0,0)" stroke-width="1.5080409570278486" fill="rgb(0,0,0)" stroke-linecap="butt" stroke-miterlimit="10.0"><text dominant-baseline="middle" transform="matrix(1.0000,0.0000,0.0000,1.0000,283.3333,322.0085)" stroke="none" text-anchor="middle">a</text></g></svg>