<?xml version="1.0" encoding="UTF-8"?>
<!DOCTYPE svg PUBLIC "-//W3C//DTD SVG 1.1//EN"
    "http://www.w3.org/Graphics/SVG/1.1/DTD/svg11.dtd"><svg xmlns="http://www.w3.org/2000/svg" height="382.1367" stroke-opacity="1" viewBox="0 0 400 382" font-size="1" width="400.0000" xmlns:xlink="http://www.w3.org/1999/xlink" stroke="rgb(0,0,0)" version="1.1"><defs></defs><defs></defs><g stroke-linejoin="miter" stroke-opacity="1.0" fill-opacity="1.0" font-size="13.930348258706468px" stroke="rgb(0,0,0)" stroke-width="1.5638654070057907" fill="rgb(0,0,0)" stroke-linecap="butt" stroke-miterlimit="10.0"><text dominant-baseline="middle" transform="matrix(1.0000,0.0000,0.0000,1.0000,259.7015,191.0684)" stroke="none" text-anchor="middle">rewriting/maude</text></g><defs></defs><g stroke-linejoin="miter" stroke-opacity="1.0" fill-opacity="1.0" font-size="13.930348258706468px" stroke="rgb(0,0,0)" stroke-width="1.5638654070057907" fill="rgb(0,0,0)" stroke-linecap="butt" stroke-miterlimit="10.0"><text dominant-baseline="middle" transform="matrix(1.0000,0.0000,0.0000,1.0000,140.2985,191.0684)" stroke="none" text-anchor="middle">MDLe</text></g><defs></defs><g stroke-linejoin="miter" stroke-opacity="1.0" fill-opacity="1.0" font-size="13.930348258706468px" stroke="rgb(0,0,0)" stroke-width="1.5638654070057907" fill="rgb(0,0,0)" stroke-linecap="butt" stroke-miterlimit="10.0"><text dominant-baseline="middle" transform="matrix(1.0000,0.0000,0.0000,1.0000,144.8430,213.9151)" stroke="none" text-anchor="middle">series-parallel</text></g><defs></defs><g stroke-linejoin="miter" stroke-opacity="1.0" fill-opacity="1.0" font-size="13.930348258706468px" stroke="rgb(0,0,0)" stroke-width="1.5638654070057907" fill="rgb(0,0,0)" stroke-linecap="butt" stroke-miterlimit="10.0"><text dominant-baseline="middle" transform="matrix(1.0000,0.0000,0.0000,1.0000,144.8430,168.2216)" stroke="none" text-anchor="middle">hybrid automata</text></g><defs></defs><g stroke-linejoin="miter" stroke-opacity="1.0" fill-opacity="1.0" font-size="24.87562189054726px" stroke="rgb(0,0,0)" stroke-width="1.5638654070057907" fill="rgb(0,0,0)" stroke-linecap="butt" stroke-miterlimit="10.0"><text dominant-baseline="middle" transform="matrix(1.0000,0.0000,0.0000,1.0000,305.5383,310.9686)" stroke="none" text-anchor="middle">expressiveness</text></g><defs></defs><g stroke-linejoin="miter" stroke-opacity="1.0" fill-opacity="1.0" font-size="24.87562189054726px" stroke="rgb(0,0,0)" stroke-width="1.5638654070057907" fill="rgb(0,0,0)" stroke-linecap="butt" stroke-miterlimit="10.0"><text dominant-baseline="middle" transform="matrix(1.0000,0.0000,0.0000,1.0000,94.4617,310.9686)" stroke="none" text-anchor="middle">simplicity</text></g><defs></defs><g stroke-linejoin="miter" stroke-opacity="1.0" fill-opacity="1.0" font-size="24.87562189054726px" stroke="rgb(0,0,0)" stroke-width="1.5638654070057907" fill="rgb(0,0,0)" stroke-linecap="butt" stroke-miterlimit="10.0"><text dominant-baseline="middle" transform="matrix(1.0000,0.0000,0.0000,1.0000,200.0000,56.1766)" stroke="none" text-anchor="middle">performance</text></g><defs></defs><g stroke-linejoin="miter" stroke-opacity="1.0" fill-opacity="1.0" opacity="0.25" stroke="rgb(0,0,0)" stroke-width="1.5638654070057907" fill="rgb(255,255,0)" stroke-linecap="butt" stroke-miterlimit="10.0"><path d="M 249.7512,234.1542 c 0.0000,-54.9537 -44.5488,-99.5025 -99.5025 -99.5025c -54.9537,-0.0000 -99.5025,44.5488 -99.5025 99.5025c -0.0000,54.9537 44.5488,99.5025 99.5025 99.5025c 54.9537,0.0000 99.5025,-44.5488 99.5025 -99.5025Z"/></g><defs></defs><g stroke-linejoin="miter" stroke-opacity="1.0" fill-opacity="1.0" opacity="0.25" stroke="rgb(0,0,0)" stroke-width="1.5638654070057907" fill="rgb(255,0,0)" stroke-linecap="butt" stroke-miterlimit="10.0"><path d="M 299.5025,147.9825 c 0.0000,-54.9537 -44.5488,-99.5025 -99.5025 -99.5025c -54.9537,-0.0000 -99.5025,44.5488 -99.5025 99.5025c -0.0000,54.9537 44.5488,99.5025 99.5025 99.5025c 54.9537,0.0000 99.5025,-44.5488 99.5025 -99.5025Z"/></g><defs></defs><g stroke-linejoin="miter" stroke-opacity="1.0" fill-opacity="1.0" opacity="0.25" stroke="rgb(0,0,0)" stroke-width="1.5638654070057907" fill="rgb(0,0,255)" stroke-linecap="butt" stroke-miterlimit="10.0"><path d="M 349.2537,234.1542 c 0.0000,-54.9537 -44.5488,-99.5025 -99.5025 -99.5025c -54.9537,-0.0000 -99.5025,44.5488 -99.5025 99.5025c -0.0000,54.9537 44.5488,99.5025 99.5025 99.5025c 54.9537,0.0000 99.5025,-44.5488 99.5025 -99.5025Z"/></g></svg>